<svg width="25" height="25" viewBox="0 0 25 25" fill="none" xmlns="http://www.w3.org/2000/svg">
<path d="M5.20837 12.5C5.20837 12.2237 5.09863 11.9588 4.90328 11.7634C4.70793 11.5681 4.44297 11.4583 4.16671 11.4583H3.12504C2.84877 11.4583 2.58382 11.5681 2.38847 11.7634C2.19312 11.9588 2.08337 12.2237 2.08337 12.5C2.08337 12.7763 2.19312 13.0412 2.38847 13.2366C2.58382 13.4319 2.84877 13.5417 3.12504 13.5417H4.16671C4.44297 13.5417 4.70793 13.4319 4.90328 13.2366C5.09863 13.0412 5.20837 12.7763 5.20837 12.5ZM5.87504 17.7083L5.13546 18.4479C4.94145 18.6431 4.83255 18.9071 4.83255 19.1823C4.83255 19.4575 4.94145 19.7215 5.13546 19.9167C5.33063 20.1107 5.59464 20.2196 5.86983 20.2196C6.14503 20.2196 6.40904 20.1107 6.60421 19.9167L7.34379 19.1771C7.51444 18.9778 7.60362 18.7215 7.59349 18.4593C7.58336 18.1972 7.47468 17.9485 7.28917 17.763C7.10365 17.5774 6.85497 17.4688 6.5928 17.4586C6.33064 17.4485 6.07431 17.5377 5.87504 17.7083ZM12.5 5.20834C12.7763 5.20834 13.0413 5.09859 13.2366 4.90324C13.432 4.70789 13.5417 4.44294 13.5417 4.16667V3.125C13.5417 2.84874 13.432 2.58378 13.2366 2.38843C13.0413 2.19308 12.7763 2.08334 12.5 2.08334C12.2238 2.08334 11.9588 2.19308 11.7635 2.38843C11.5681 2.58378 11.4584 2.84874 11.4584 3.125V4.16667C11.4584 4.44294 11.5681 4.70789 11.7635 4.90324C11.9588 5.09859 12.2238 5.20834 12.5 5.20834ZM18.3959 7.64584C18.6691 7.64469 18.931 7.53619 19.125 7.34375L19.8646 6.60417C19.9737 6.51079 20.0622 6.39587 20.1248 6.26664C20.1873 6.1374 20.2224 5.99664 20.228 5.85318C20.2335 5.70973 20.2093 5.56667 20.157 5.433C20.1046 5.29933 20.0252 5.17792 19.9236 5.07641C19.8221 4.97489 19.7007 4.89546 19.567 4.84309C19.4334 4.79072 19.2903 4.76655 19.1469 4.77209C19.0034 4.77763 18.8626 4.81276 18.7334 4.87529C18.6042 4.93781 18.4893 5.02638 18.3959 5.13542L17.7084 5.875C17.5144 6.07017 17.4055 6.33418 17.4055 6.60938C17.4055 6.88457 17.5144 7.14858 17.7084 7.34375C17.892 7.52642 18.1371 7.63412 18.3959 7.64584ZM5.89587 7.34375C6.0899 7.53619 6.35177 7.64469 6.62504 7.64584C6.76213 7.64663 6.89803 7.62035 7.02494 7.56851C7.15186 7.51668 7.26729 7.4403 7.36462 7.34375C7.55864 7.14858 7.66753 6.88457 7.66753 6.60938C7.66753 6.33418 7.55864 6.07017 7.36462 5.875L6.62504 5.13542C6.43027 4.93789 6.16501 4.82582 5.88761 4.82387C5.61022 4.82191 5.34341 4.93023 5.14587 5.125C4.94834 5.31977 4.83627 5.58503 4.83432 5.86243C4.83237 6.13983 4.94069 6.40664 5.13546 6.60417L5.89587 7.34375ZM21.875 11.4583H20.8334C20.5571 11.4583 20.2922 11.5681 20.0968 11.7634C19.9015 11.9588 19.7917 12.2237 19.7917 12.5C19.7917 12.7763 19.9015 13.0412 20.0968 13.2366C20.2922 13.4319 20.5571 13.5417 20.8334 13.5417H21.875C22.1513 13.5417 22.4163 13.4319 22.6116 13.2366C22.807 13.0412 22.9167 12.7763 22.9167 12.5C22.9167 12.2237 22.807 11.9588 22.6116 11.7634C22.4163 11.5681 22.1513 11.4583 21.875 11.4583ZM19.125 17.7083C18.9271 17.5983 18.6988 17.5557 18.4745 17.587C18.2502 17.6184 18.0423 17.722 17.8821 17.8821C17.722 18.0422 17.6184 18.2502 17.5871 18.4744C17.5557 18.6987 17.5983 18.9271 17.7084 19.125L18.448 19.8646C18.6431 20.0586 18.9071 20.1675 19.1823 20.1675C19.4575 20.1675 19.7215 20.0586 19.9167 19.8646C20.1107 19.6694 20.2196 19.4054 20.2196 19.1302C20.2196 18.855 20.1107 18.591 19.9167 18.3958L19.125 17.7083ZM12.5 6.77084C11.3669 6.77084 10.2592 7.10685 9.31709 7.73637C8.37493 8.3659 7.64061 9.26068 7.20698 10.3075C6.77335 11.3544 6.6599 12.5064 6.88096 13.6177C7.10202 14.7291 7.64767 15.7499 8.44891 16.5511C9.25015 17.3524 10.271 17.898 11.3823 18.1191C12.4937 18.3401 13.6456 18.2267 14.6925 17.7931C15.7394 17.3594 16.6341 16.6251 17.2637 15.683C17.8932 14.7408 18.2292 13.6331 18.2292 12.5C18.2265 10.9814 17.622 9.52574 16.5481 8.45191C15.4743 7.37808 14.0187 6.77359 12.5 6.77084ZM12.5 16.1458C11.779 16.1458 11.0741 15.932 10.4745 15.5314C9.87497 15.1308 9.40767 14.5614 9.13173 13.8952C8.85579 13.229 8.78359 12.496 8.92426 11.7887C9.06494 11.0815 9.41217 10.4319 9.92205 9.92201C10.4319 9.41213 11.0816 9.0649 11.7888 8.92422C12.496 8.78355 13.2291 8.85575 13.8952 9.13169C14.5614 9.40764 15.1308 9.87493 15.5314 10.4745C15.9321 11.074 16.1459 11.7789 16.1459 12.5C16.1459 13.4669 15.7618 14.3943 15.078 15.078C14.3943 15.7617 13.467 16.1458 12.5 16.1458ZM12.5 19.7917C12.2238 19.7917 11.9588 19.9014 11.7635 20.0968C11.5681 20.2921 11.4584 20.5571 11.4584 20.8333V21.875C11.4584 22.1513 11.5681 22.4162 11.7635 22.6116C11.9588 22.8069 12.2238 22.9167 12.5 22.9167C12.7763 22.9167 13.0413 22.8069 13.2366 22.6116C13.432 22.4162 13.5417 22.1513 13.5417 21.875V20.8333C13.5417 20.5571 13.432 20.2921 13.2366 20.0968C13.0413 19.9014 12.7763 19.7917 12.5 19.7917Z" fill="white" fill-opacity="0.3"/>
</svg>
